<svg width="50" height="40" viewBox="0 0 50 40" fill="none" xmlns="http://www.w3.org/2000/svg">
<path d="M19.954 40C30.9743 40 39.908 31.0457 39.908 20C39.908 8.9543 30.9743 0 19.954 0C8.93371 0 0 8.9543 0 20C0 31.0457 8.93371 40 19.954 40Z" fill="#ED184F"/>
<path d="M48.9982 11.2002H42.9854V30.4095H48.9982V11.2002Z" fill="#ED184F"/>
<path d="M45.9957 14.1626C47.6583 14.1626 49.0061 12.8117 49.0061 11.1453C49.0061 9.47883 47.6583 8.12793 45.9957 8.12793C44.3332 8.12793 42.9854 9.47883 42.9854 11.1453C42.9854 12.8117 44.3332 14.1626 45.9957 14.1626Z" fill="#ED184F"/>
<path d="M45.9957 6.69677C47.6583 6.69677 49.0061 5.34587 49.0061 3.67944C49.0061 2.01302 47.6583 0.662109 45.9957 0.662109C44.3332 0.662109 42.9854 2.01302 42.9854 3.67944C42.9854 5.34587 44.3332 6.69677 45.9957 6.69677Z" fill="#ED184F"/>
<path d="M45.9957 33.3628C47.6583 33.3628 49.0061 32.0119 49.0061 30.3455C49.0061 28.679 47.6583 27.3281 45.9957 27.3281C44.3332 27.3281 42.9854 28.679 42.9854 30.3455C42.9854 32.0119 44.3332 33.3628 45.9957 33.3628Z" fill="#ED184F"/>
<path d="M20.7654 6.55566C23.3076 6.55566 25.4772 7.34233 27.2718 8.917C29.0663 7.34233 31.1987 6.55566 33.6664 6.55566C36.8071 6.55566 39.2748 7.67966 41.0706 9.929C42.4913 11.653 43.1645 13.6023 43.09 15.7757V30.2797C43.09 31.4037 42.6031 32.2663 41.632 32.8663C40.6596 33.465 39.6499 33.465 38.603 32.8663C37.6306 32.2677 37.145 31.405 37.145 30.2797V15.7757C36.9202 14.165 36.3216 13.153 35.3505 12.7397C34.9767 12.5903 34.4153 12.5143 33.6677 12.5143C32.2456 12.5143 31.3118 12.889 30.8635 13.6383C30.4897 14.313 30.2649 15.025 30.1904 15.7743V22.0143C30.1904 23.1383 29.7035 24.001 28.7324 24.601C27.76 25.201 26.7503 25.201 25.7034 24.601C24.731 24.077 24.2454 23.2143 24.2454 22.0143V15.7743C24.0206 14.1637 23.422 13.1517 22.4509 12.7383C22.0771 12.589 21.5157 12.513 20.7681 12.513C19.4219 12.513 18.5239 12.8877 18.0756 13.637C17.6273 14.4237 17.3653 15.137 17.2908 15.773V30.2797C17.3653 31.4037 16.8784 32.2663 15.8328 32.8663C14.8604 33.465 13.8507 33.465 12.8038 32.8663C11.8314 32.2677 11.3458 31.405 11.3458 30.2797V15.7757C11.6451 11.129 13.739 8.205 17.6273 7.005C18.5971 6.70633 19.644 6.55566 20.7654 6.55566Z" fill="white"/>
</svg>
